<mxfile host="app.diagrams.net" modified="2020-10-14T03:19:37.152Z" agent="5.0 (Windows NT 10.0; Win64; x64) AppleWebKit/537.36 (KHTML, like Gecko) Chrome/81.0.4044.113 Safari/537.36" etag="rmbh_3hUtiEcJSbnuSbM" version="13.7.9" type="github">
  <diagram name="Page-1" id="822b0af5-4adb-64df-f703-e8dfc1f81529">
    <mxGraphModel dx="1422" dy="865" grid="1" gridSize="10" guides="1" tooltips="1" connect="1" arrows="1" fold="1" page="1" pageScale="1" pageWidth="1100" pageHeight="850" background="#ffffff" math="0" shadow="0">
      <root>
        <mxCell id="0" />
        <mxCell id="1" parent="0" />
        <mxCell id="1Zsn9L5nUuaMn7X5BciJ-11" style="edgeStyle=none;rounded=0;orthogonalLoop=1;jettySize=auto;html=1;exitX=0.5;exitY=0.99;exitDx=0;exitDy=0;exitPerimeter=0;" edge="1" parent="1" source="1Zsn9L5nUuaMn7X5BciJ-1" target="1Zsn9L5nUuaMn7X5BciJ-4">
          <mxGeometry relative="1" as="geometry" />
        </mxCell>
        <mxCell id="1Zsn9L5nUuaMn7X5BciJ-1" value="61.50.111.213" style="shape=mxgraph.cisco.storage.cloud;html=1;pointerEvents=1;dashed=0;fillColor=#036897;strokeColor=#ffffff;strokeWidth=2;verticalLabelPosition=bottom;verticalAlign=top;align=center;outlineConnect=0;" vertex="1" parent="1">
          <mxGeometry x="430" y="90" width="186" height="106" as="geometry" />
        </mxCell>
        <mxCell id="1Zsn9L5nUuaMn7X5BciJ-12" style="edgeStyle=none;rounded=0;orthogonalLoop=1;jettySize=auto;html=1;exitX=0.5;exitY=0.99;exitDx=0;exitDy=0;exitPerimeter=0;" edge="1" parent="1" source="1Zsn9L5nUuaMn7X5BciJ-2" target="1Zsn9L5nUuaMn7X5BciJ-6">
          <mxGeometry relative="1" as="geometry" />
        </mxCell>
        <mxCell id="1Zsn9L5nUuaMn7X5BciJ-2" value="&lt;a href=&quot;https://124.193.78.146/&quot;&gt;124.193.78.146&lt;/a&gt;" style="shape=mxgraph.cisco.storage.cloud;html=1;pointerEvents=1;dashed=0;fillColor=#036897;strokeColor=#ffffff;strokeWidth=2;verticalLabelPosition=bottom;verticalAlign=top;align=center;outlineConnect=0;" vertex="1" parent="1">
          <mxGeometry x="742.5" y="90" width="186" height="106" as="geometry" />
        </mxCell>
        <mxCell id="1Zsn9L5nUuaMn7X5BciJ-13" style="edgeStyle=none;rounded=0;orthogonalLoop=1;jettySize=auto;html=1;exitX=0.94;exitY=0.96;exitDx=0;exitDy=0;exitPerimeter=0;" edge="1" parent="1" source="1Zsn9L5nUuaMn7X5BciJ-4" target="1Zsn9L5nUuaMn7X5BciJ-9">
          <mxGeometry relative="1" as="geometry" />
        </mxCell>
        <mxCell id="1Zsn9L5nUuaMn7X5BciJ-4" value="" style="shape=mxgraph.cisco.controllers_and_modules.service_module;html=1;pointerEvents=1;dashed=0;fillColor=#036897;strokeColor=#ffffff;strokeWidth=2;verticalLabelPosition=bottom;verticalAlign=top;align=center;outlineConnect=0;" vertex="1" parent="1">
          <mxGeometry x="497.5" y="310" width="51" height="66" as="geometry" />
        </mxCell>
        <mxCell id="1Zsn9L5nUuaMn7X5BciJ-14" style="edgeStyle=none;rounded=0;orthogonalLoop=1;jettySize=auto;html=1;exitX=0;exitY=1;exitDx=0;exitDy=0;exitPerimeter=0;" edge="1" parent="1" source="1Zsn9L5nUuaMn7X5BciJ-6" target="1Zsn9L5nUuaMn7X5BciJ-9">
          <mxGeometry relative="1" as="geometry" />
        </mxCell>
        <mxCell id="1Zsn9L5nUuaMn7X5BciJ-6" value="" style="shape=mxgraph.cisco.controllers_and_modules.service_module;html=1;pointerEvents=1;dashed=0;fillColor=#036897;strokeColor=#ffffff;strokeWidth=2;verticalLabelPosition=bottom;verticalAlign=top;align=center;outlineConnect=0;" vertex="1" parent="1">
          <mxGeometry x="810" y="300" width="51" height="70" as="geometry" />
        </mxCell>
        <mxCell id="1Zsn9L5nUuaMn7X5BciJ-9" value="" style="shape=mxgraph.cisco.switches.workgroup_switch;html=1;pointerEvents=1;dashed=0;fillColor=#036897;strokeColor=#ffffff;strokeWidth=2;verticalLabelPosition=bottom;verticalAlign=top;align=center;outlineConnect=0;" vertex="1" parent="1">
          <mxGeometry x="610" y="440" width="101" height="50" as="geometry" />
        </mxCell>
        <mxCell id="1Zsn9L5nUuaMn7X5BciJ-15" value="" style="shape=mxgraph.cisco.wireless.wlan_controller;html=1;pointerEvents=1;dashed=0;fillColor=#036897;strokeColor=#ffffff;strokeWidth=2;verticalLabelPosition=bottom;verticalAlign=top;align=center;outlineConnect=0;" vertex="1" parent="1">
          <mxGeometry x="350" y="580" width="101" height="56" as="geometry" />
        </mxCell>
      </root>
    </mxGraphModel>
  </diagram>
</mxfile>
